<mxfile host="Electron" modified="2024-11-02T12:44:55.466Z" agent="Mozilla/5.0 (Windows NT 10.0; Win64; x64) AppleWebKit/537.36 (KHTML, like Gecko) draw.io/24.6.4 Chrome/124.0.6367.207 Electron/30.0.6 Safari/537.36" etag="9bB2pjs76N4dnK4P7ixa" version="24.6.4" type="device">
  <diagram name="Page-1" id="0-JMttDKHaUV1ykUcEcS">
    <mxGraphModel dx="1763" dy="623" grid="1" gridSize="10" guides="1" tooltips="1" connect="1" arrows="1" fold="1" page="1" pageScale="1" pageWidth="850" pageHeight="1100" math="1" shadow="0">
      <root>
        <mxCell id="0" />
        <mxCell id="1" parent="0" />
        <mxCell id="yNlJ8jRvlEqTjOjArR5y-15" style="rounded=0;orthogonalLoop=1;jettySize=auto;html=1;exitX=0;exitY=1;exitDx=0;exitDy=0;entryX=1;entryY=0;entryDx=0;entryDy=0;" edge="1" parent="1" source="yNlJ8jRvlEqTjOjArR5y-1" target="yNlJ8jRvlEqTjOjArR5y-2">
          <mxGeometry relative="1" as="geometry" />
        </mxCell>
        <mxCell id="yNlJ8jRvlEqTjOjArR5y-16" style="rounded=0;orthogonalLoop=1;jettySize=auto;html=1;exitX=0.5;exitY=1;exitDx=0;exitDy=0;" edge="1" parent="1" source="yNlJ8jRvlEqTjOjArR5y-1" target="yNlJ8jRvlEqTjOjArR5y-3">
          <mxGeometry relative="1" as="geometry" />
        </mxCell>
        <mxCell id="yNlJ8jRvlEqTjOjArR5y-20" style="rounded=0;orthogonalLoop=1;jettySize=auto;html=1;exitX=1;exitY=1;exitDx=0;exitDy=0;" edge="1" parent="1" source="yNlJ8jRvlEqTjOjArR5y-1" target="yNlJ8jRvlEqTjOjArR5y-4">
          <mxGeometry relative="1" as="geometry" />
        </mxCell>
        <mxCell id="yNlJ8jRvlEqTjOjArR5y-1" value="" style="ellipse;whiteSpace=wrap;html=1;aspect=fixed;" vertex="1" parent="1">
          <mxGeometry x="27" y="120" width="40" height="40" as="geometry" />
        </mxCell>
        <mxCell id="yNlJ8jRvlEqTjOjArR5y-21" style="rounded=0;orthogonalLoop=1;jettySize=auto;html=1;exitX=0.5;exitY=1;exitDx=0;exitDy=0;entryX=0.5;entryY=0;entryDx=0;entryDy=0;" edge="1" parent="1" source="yNlJ8jRvlEqTjOjArR5y-2" target="yNlJ8jRvlEqTjOjArR5y-6">
          <mxGeometry relative="1" as="geometry" />
        </mxCell>
        <mxCell id="yNlJ8jRvlEqTjOjArR5y-22" style="rounded=0;orthogonalLoop=1;jettySize=auto;html=1;exitX=0.5;exitY=1;exitDx=0;exitDy=0;entryX=0.5;entryY=0;entryDx=0;entryDy=0;" edge="1" parent="1" source="yNlJ8jRvlEqTjOjArR5y-2" target="yNlJ8jRvlEqTjOjArR5y-7">
          <mxGeometry relative="1" as="geometry" />
        </mxCell>
        <mxCell id="yNlJ8jRvlEqTjOjArR5y-23" style="rounded=0;orthogonalLoop=1;jettySize=auto;html=1;exitX=0.5;exitY=1;exitDx=0;exitDy=0;entryX=0.5;entryY=0;entryDx=0;entryDy=0;" edge="1" parent="1" source="yNlJ8jRvlEqTjOjArR5y-2" target="yNlJ8jRvlEqTjOjArR5y-8">
          <mxGeometry relative="1" as="geometry" />
        </mxCell>
        <mxCell id="yNlJ8jRvlEqTjOjArR5y-2" value="" style="ellipse;whiteSpace=wrap;html=1;aspect=fixed;" vertex="1" parent="1">
          <mxGeometry x="-83" y="240" width="40" height="40" as="geometry" />
        </mxCell>
        <mxCell id="yNlJ8jRvlEqTjOjArR5y-26" style="rounded=0;orthogonalLoop=1;jettySize=auto;html=1;exitX=0.5;exitY=1;exitDx=0;exitDy=0;" edge="1" parent="1" source="yNlJ8jRvlEqTjOjArR5y-3" target="yNlJ8jRvlEqTjOjArR5y-11">
          <mxGeometry relative="1" as="geometry" />
        </mxCell>
        <mxCell id="yNlJ8jRvlEqTjOjArR5y-3" value="" style="ellipse;whiteSpace=wrap;html=1;aspect=fixed;" vertex="1" parent="1">
          <mxGeometry x="57" y="240" width="40" height="40" as="geometry" />
        </mxCell>
        <mxCell id="yNlJ8jRvlEqTjOjArR5y-27" style="rounded=0;orthogonalLoop=1;jettySize=auto;html=1;exitX=0.5;exitY=1;exitDx=0;exitDy=0;entryX=0.5;entryY=0;entryDx=0;entryDy=0;" edge="1" parent="1" source="yNlJ8jRvlEqTjOjArR5y-4" target="yNlJ8jRvlEqTjOjArR5y-12">
          <mxGeometry relative="1" as="geometry" />
        </mxCell>
        <mxCell id="yNlJ8jRvlEqTjOjArR5y-28" style="rounded=0;orthogonalLoop=1;jettySize=auto;html=1;exitX=0.5;exitY=1;exitDx=0;exitDy=0;entryX=0;entryY=0;entryDx=0;entryDy=0;" edge="1" parent="1" source="yNlJ8jRvlEqTjOjArR5y-4" target="yNlJ8jRvlEqTjOjArR5y-13">
          <mxGeometry relative="1" as="geometry" />
        </mxCell>
        <mxCell id="yNlJ8jRvlEqTjOjArR5y-29" value="" style="rounded=0;orthogonalLoop=1;jettySize=auto;html=1;exitX=0.5;exitY=1;exitDx=0;exitDy=0;entryX=0.5;entryY=0;entryDx=0;entryDy=0;" edge="1" parent="1" source="yNlJ8jRvlEqTjOjArR5y-4" target="yNlJ8jRvlEqTjOjArR5y-14">
          <mxGeometry relative="1" as="geometry" />
        </mxCell>
        <mxCell id="yNlJ8jRvlEqTjOjArR5y-4" value="" style="ellipse;whiteSpace=wrap;html=1;aspect=fixed;" vertex="1" parent="1">
          <mxGeometry x="307" y="240" width="40" height="40" as="geometry" />
        </mxCell>
        <mxCell id="yNlJ8jRvlEqTjOjArR5y-6" value="" style="ellipse;whiteSpace=wrap;html=1;aspect=fixed;" vertex="1" parent="1">
          <mxGeometry x="-233" y="320" width="40" height="40" as="geometry" />
        </mxCell>
        <mxCell id="yNlJ8jRvlEqTjOjArR5y-7" value="" style="ellipse;whiteSpace=wrap;html=1;aspect=fixed;" vertex="1" parent="1">
          <mxGeometry x="-163" y="320" width="40" height="40" as="geometry" />
        </mxCell>
        <mxCell id="yNlJ8jRvlEqTjOjArR5y-8" value="" style="ellipse;whiteSpace=wrap;html=1;aspect=fixed;" vertex="1" parent="1">
          <mxGeometry x="-43" y="320" width="40" height="40" as="geometry" />
        </mxCell>
        <mxCell id="yNlJ8jRvlEqTjOjArR5y-9" value="" style="ellipse;whiteSpace=wrap;html=1;aspect=fixed;" vertex="1" parent="1">
          <mxGeometry x="37" y="320" width="40" height="40" as="geometry" />
        </mxCell>
        <mxCell id="yNlJ8jRvlEqTjOjArR5y-10" value="" style="ellipse;whiteSpace=wrap;html=1;aspect=fixed;" vertex="1" parent="1">
          <mxGeometry x="97" y="320" width="40" height="40" as="geometry" />
        </mxCell>
        <mxCell id="yNlJ8jRvlEqTjOjArR5y-11" value="" style="ellipse;whiteSpace=wrap;html=1;aspect=fixed;" vertex="1" parent="1">
          <mxGeometry x="217" y="320" width="40" height="40" as="geometry" />
        </mxCell>
        <mxCell id="yNlJ8jRvlEqTjOjArR5y-12" value="" style="ellipse;whiteSpace=wrap;html=1;aspect=fixed;" vertex="1" parent="1">
          <mxGeometry x="287" y="320" width="40" height="40" as="geometry" />
        </mxCell>
        <mxCell id="yNlJ8jRvlEqTjOjArR5y-13" value="" style="ellipse;whiteSpace=wrap;html=1;aspect=fixed;" vertex="1" parent="1">
          <mxGeometry x="367" y="320" width="40" height="40" as="geometry" />
        </mxCell>
        <mxCell id="yNlJ8jRvlEqTjOjArR5y-14" value="" style="ellipse;whiteSpace=wrap;html=1;aspect=fixed;" vertex="1" parent="1">
          <mxGeometry x="517" y="320" width="40" height="40" as="geometry" />
        </mxCell>
        <mxCell id="yNlJ8jRvlEqTjOjArR5y-24" style="rounded=0;orthogonalLoop=1;jettySize=auto;html=1;exitX=0.5;exitY=1;exitDx=0;exitDy=0;entryX=0.342;entryY=0.047;entryDx=0;entryDy=0;entryPerimeter=0;" edge="1" parent="1" source="yNlJ8jRvlEqTjOjArR5y-3" target="yNlJ8jRvlEqTjOjArR5y-9">
          <mxGeometry relative="1" as="geometry" />
        </mxCell>
        <mxCell id="yNlJ8jRvlEqTjOjArR5y-25" style="rounded=0;orthogonalLoop=1;jettySize=auto;html=1;exitX=0.5;exitY=1;exitDx=0;exitDy=0;entryX=0.338;entryY=-0.005;entryDx=0;entryDy=0;entryPerimeter=0;" edge="1" parent="1" source="yNlJ8jRvlEqTjOjArR5y-3" target="yNlJ8jRvlEqTjOjArR5y-10">
          <mxGeometry relative="1" as="geometry" />
        </mxCell>
        <mxCell id="yNlJ8jRvlEqTjOjArR5y-30" value="&lt;font style=&quot;font-size: 22px;&quot;&gt;&lt;b&gt;....&lt;/b&gt;&lt;/font&gt;" style="text;html=1;align=center;verticalAlign=middle;resizable=0;points=[];autosize=1;strokeColor=none;fillColor=none;" vertex="1" parent="1">
          <mxGeometry x="-113" y="320" width="50" height="40" as="geometry" />
        </mxCell>
        <mxCell id="yNlJ8jRvlEqTjOjArR5y-31" value="&lt;font style=&quot;font-size: 22px;&quot;&gt;&lt;b&gt;....&lt;/b&gt;&lt;/font&gt;" style="text;html=1;align=center;verticalAlign=middle;resizable=0;points=[];autosize=1;strokeColor=none;fillColor=none;rotation=90;" vertex="1" parent="1">
          <mxGeometry x="-88" y="370" width="50" height="40" as="geometry" />
        </mxCell>
        <mxCell id="yNlJ8jRvlEqTjOjArR5y-32" value="&lt;font style=&quot;font-size: 22px;&quot;&gt;&lt;b&gt;....&lt;/b&gt;&lt;/font&gt;" style="text;html=1;align=center;verticalAlign=middle;resizable=0;points=[];autosize=1;strokeColor=none;fillColor=none;" vertex="1" parent="1">
          <mxGeometry x="187" y="240" width="50" height="40" as="geometry" />
        </mxCell>
        <mxCell id="yNlJ8jRvlEqTjOjArR5y-33" value="&lt;font style=&quot;font-size: 22px;&quot;&gt;&lt;b&gt;....&lt;/b&gt;&lt;/font&gt;" style="text;html=1;align=center;verticalAlign=middle;resizable=0;points=[];autosize=1;strokeColor=none;fillColor=none;" vertex="1" parent="1">
          <mxGeometry x="447" y="320" width="50" height="40" as="geometry" />
        </mxCell>
        <mxCell id="yNlJ8jRvlEqTjOjArR5y-36" value="&lt;font style=&quot;font-size: 22px;&quot;&gt;&lt;b&gt;....&lt;/b&gt;&lt;/font&gt;" style="text;html=1;align=center;verticalAlign=middle;resizable=0;points=[];autosize=1;strokeColor=none;fillColor=none;" vertex="1" parent="1">
          <mxGeometry x="147" y="320" width="50" height="40" as="geometry" />
        </mxCell>
        <mxCell id="yNlJ8jRvlEqTjOjArR5y-37" value="&lt;font style=&quot;font-size: 22px;&quot;&gt;&lt;b&gt;....&lt;/b&gt;&lt;/font&gt;" style="text;html=1;align=center;verticalAlign=middle;resizable=0;points=[];autosize=1;strokeColor=none;fillColor=none;rotation=90;" vertex="1" parent="1">
          <mxGeometry x="447" y="380" width="50" height="40" as="geometry" />
        </mxCell>
        <mxCell id="yNlJ8jRvlEqTjOjArR5y-38" value="" style="ellipse;whiteSpace=wrap;html=1;aspect=fixed;" vertex="1" parent="1">
          <mxGeometry x="-233" y="480" width="40" height="40" as="geometry" />
        </mxCell>
        <mxCell id="yNlJ8jRvlEqTjOjArR5y-39" value="" style="ellipse;whiteSpace=wrap;html=1;aspect=fixed;" vertex="1" parent="1">
          <mxGeometry x="-153" y="480" width="40" height="40" as="geometry" />
        </mxCell>
        <mxCell id="yNlJ8jRvlEqTjOjArR5y-40" value="" style="ellipse;whiteSpace=wrap;html=1;aspect=fixed;" vertex="1" parent="1">
          <mxGeometry x="-63" y="480" width="40" height="40" as="geometry" />
        </mxCell>
        <mxCell id="yNlJ8jRvlEqTjOjArR5y-41" value="" style="ellipse;whiteSpace=wrap;html=1;aspect=fixed;" vertex="1" parent="1">
          <mxGeometry x="17" y="480" width="40" height="40" as="geometry" />
        </mxCell>
        <mxCell id="yNlJ8jRvlEqTjOjArR5y-42" value="" style="ellipse;whiteSpace=wrap;html=1;aspect=fixed;" vertex="1" parent="1">
          <mxGeometry x="97" y="480" width="40" height="40" as="geometry" />
        </mxCell>
        <mxCell id="yNlJ8jRvlEqTjOjArR5y-43" value="" style="ellipse;whiteSpace=wrap;html=1;aspect=fixed;" vertex="1" parent="1">
          <mxGeometry x="177" y="480" width="40" height="40" as="geometry" />
        </mxCell>
        <mxCell id="yNlJ8jRvlEqTjOjArR5y-44" value="" style="ellipse;whiteSpace=wrap;html=1;aspect=fixed;" vertex="1" parent="1">
          <mxGeometry x="267" y="480" width="40" height="40" as="geometry" />
        </mxCell>
        <mxCell id="yNlJ8jRvlEqTjOjArR5y-45" value="" style="ellipse;whiteSpace=wrap;html=1;aspect=fixed;" vertex="1" parent="1">
          <mxGeometry x="347" y="480" width="40" height="40" as="geometry" />
        </mxCell>
        <mxCell id="yNlJ8jRvlEqTjOjArR5y-46" value="" style="ellipse;whiteSpace=wrap;html=1;aspect=fixed;" vertex="1" parent="1">
          <mxGeometry x="517" y="479" width="40" height="40" as="geometry" />
        </mxCell>
        <mxCell id="yNlJ8jRvlEqTjOjArR5y-47" value="" style="edgeStyle=none;orthogonalLoop=1;jettySize=auto;html=1;rounded=0;" edge="1" parent="1">
          <mxGeometry width="100" relative="1" as="geometry">
            <mxPoint x="-214" y="418" as="sourcePoint" />
            <mxPoint x="-214" y="458" as="targetPoint" />
            <Array as="points" />
          </mxGeometry>
        </mxCell>
        <mxCell id="yNlJ8jRvlEqTjOjArR5y-48" value="" style="edgeStyle=none;orthogonalLoop=1;jettySize=auto;html=1;rounded=0;" edge="1" parent="1">
          <mxGeometry width="100" relative="1" as="geometry">
            <mxPoint x="-133" y="420" as="sourcePoint" />
            <mxPoint x="-133" y="460" as="targetPoint" />
            <Array as="points" />
          </mxGeometry>
        </mxCell>
        <mxCell id="yNlJ8jRvlEqTjOjArR5y-49" value="" style="edgeStyle=none;orthogonalLoop=1;jettySize=auto;html=1;rounded=0;" edge="1" parent="1">
          <mxGeometry width="100" relative="1" as="geometry">
            <mxPoint x="-43" y="420" as="sourcePoint" />
            <mxPoint x="-43" y="460" as="targetPoint" />
            <Array as="points" />
          </mxGeometry>
        </mxCell>
        <mxCell id="yNlJ8jRvlEqTjOjArR5y-50" value="" style="edgeStyle=none;orthogonalLoop=1;jettySize=auto;html=1;rounded=0;" edge="1" parent="1">
          <mxGeometry width="100" relative="1" as="geometry">
            <mxPoint x="37" y="420" as="sourcePoint" />
            <mxPoint x="37" y="460" as="targetPoint" />
            <Array as="points" />
          </mxGeometry>
        </mxCell>
        <mxCell id="yNlJ8jRvlEqTjOjArR5y-51" value="" style="edgeStyle=none;orthogonalLoop=1;jettySize=auto;html=1;rounded=0;" edge="1" parent="1">
          <mxGeometry width="100" relative="1" as="geometry">
            <mxPoint x="117" y="424" as="sourcePoint" />
            <mxPoint x="117" y="464" as="targetPoint" />
            <Array as="points" />
          </mxGeometry>
        </mxCell>
        <mxCell id="yNlJ8jRvlEqTjOjArR5y-53" value="" style="edgeStyle=orthogonalEdgeStyle;orthogonalLoop=1;jettySize=auto;html=1;rounded=0;curved=1;" edge="1" parent="1">
          <mxGeometry width="100" relative="1" as="geometry">
            <mxPoint x="201" y="430" as="sourcePoint" />
            <mxPoint x="201" y="470" as="targetPoint" />
          </mxGeometry>
        </mxCell>
        <mxCell id="yNlJ8jRvlEqTjOjArR5y-54" value="" style="edgeStyle=none;orthogonalLoop=1;jettySize=auto;html=1;rounded=0;" edge="1" parent="1">
          <mxGeometry width="100" relative="1" as="geometry">
            <mxPoint x="287" y="430" as="sourcePoint" />
            <mxPoint x="287" y="470" as="targetPoint" />
            <Array as="points" />
          </mxGeometry>
        </mxCell>
        <mxCell id="yNlJ8jRvlEqTjOjArR5y-55" value="" style="edgeStyle=none;orthogonalLoop=1;jettySize=auto;html=1;rounded=0;" edge="1" parent="1">
          <mxGeometry width="100" relative="1" as="geometry">
            <mxPoint x="367" y="434" as="sourcePoint" />
            <mxPoint x="367" y="474" as="targetPoint" />
            <Array as="points" />
          </mxGeometry>
        </mxCell>
        <mxCell id="yNlJ8jRvlEqTjOjArR5y-56" value="" style="edgeStyle=none;orthogonalLoop=1;jettySize=auto;html=1;rounded=0;" edge="1" parent="1">
          <mxGeometry width="100" relative="1" as="geometry">
            <mxPoint x="537" y="431" as="sourcePoint" />
            <mxPoint x="537" y="471" as="targetPoint" />
            <Array as="points" />
          </mxGeometry>
        </mxCell>
        <mxCell id="yNlJ8jRvlEqTjOjArR5y-57" value="" style="endArrow=none;dashed=1;html=1;strokeWidth=2;rounded=0;edgeStyle=orthogonalEdgeStyle;curved=1;" edge="1" parent="1">
          <mxGeometry width="50" height="50" relative="1" as="geometry">
            <mxPoint x="-253" y="520" as="sourcePoint" />
            <mxPoint x="557" y="520" as="targetPoint" />
            <Array as="points">
              <mxPoint x="-253" y="560" />
              <mxPoint x="557" y="560" />
            </Array>
          </mxGeometry>
        </mxCell>
        <mxCell id="yNlJ8jRvlEqTjOjArR5y-59" value="1" style="ellipse;whiteSpace=wrap;html=1;aspect=fixed;fontSize=16;fontStyle=1" vertex="1" parent="1">
          <mxGeometry x="-153" y="600" width="40" height="40" as="geometry" />
        </mxCell>
        <mxCell id="yNlJ8jRvlEqTjOjArR5y-60" value="2" style="ellipse;whiteSpace=wrap;html=1;aspect=fixed;fontSize=16;fontStyle=1" vertex="1" parent="1">
          <mxGeometry x="55" y="600" width="40" height="40" as="geometry" />
        </mxCell>
        <mxCell id="yNlJ8jRvlEqTjOjArR5y-61" value="3" style="ellipse;whiteSpace=wrap;html=1;aspect=fixed;fontSize=16;fontStyle=1" vertex="1" parent="1">
          <mxGeometry x="225" y="600" width="40" height="40" as="geometry" />
        </mxCell>
        <mxCell id="yNlJ8jRvlEqTjOjArR5y-62" value="&lt;span style=&quot;font-size: 16px;&quot;&gt;w&lt;/span&gt;" style="ellipse;whiteSpace=wrap;html=1;aspect=fixed;fontSize=16;fontStyle=1" vertex="1" parent="1">
          <mxGeometry x="465" y="600" width="40" height="40" as="geometry" />
        </mxCell>
        <mxCell id="yNlJ8jRvlEqTjOjArR5y-63" value="" style="endArrow=none;dashed=1;html=1;strokeWidth=2;rounded=0;edgeStyle=orthogonalEdgeStyle;curved=1;" edge="1" parent="1">
          <mxGeometry width="50" height="50" relative="1" as="geometry">
            <mxPoint x="-254.95" y="668" as="sourcePoint" />
            <mxPoint x="555.05" y="668" as="targetPoint" />
            <Array as="points">
              <mxPoint x="-254.95" y="708" />
              <mxPoint x="555.05" y="708" />
            </Array>
          </mxGeometry>
        </mxCell>
        <mxCell id="yNlJ8jRvlEqTjOjArR5y-64" value="1" style="ellipse;whiteSpace=wrap;html=1;aspect=fixed;fontSize=16;fontStyle=1" vertex="1" parent="1">
          <mxGeometry x="-163.05" y="730" width="40" height="40" as="geometry" />
        </mxCell>
        <mxCell id="yNlJ8jRvlEqTjOjArR5y-65" value="2" style="ellipse;whiteSpace=wrap;html=1;aspect=fixed;fontSize=16;fontStyle=1" vertex="1" parent="1">
          <mxGeometry x="44.94999999999999" y="730" width="40" height="40" as="geometry" />
        </mxCell>
        <mxCell id="yNlJ8jRvlEqTjOjArR5y-66" value="3" style="ellipse;whiteSpace=wrap;html=1;aspect=fixed;fontSize=16;fontStyle=1" vertex="1" parent="1">
          <mxGeometry x="225" y="730" width="40" height="40" as="geometry" />
        </mxCell>
        <mxCell id="yNlJ8jRvlEqTjOjArR5y-67" value="&lt;b style=&quot;font-size: 15px;&quot;&gt;w&lt;/b&gt;" style="ellipse;whiteSpace=wrap;html=1;aspect=fixed;" vertex="1" parent="1">
          <mxGeometry x="465" y="730" width="40" height="40" as="geometry" />
        </mxCell>
        <mxCell id="yNlJ8jRvlEqTjOjArR5y-68" value="" style="endArrow=none;html=1;strokeWidth=2;rounded=0;edgeStyle=orthogonalEdgeStyle;curved=1;" edge="1" parent="1">
          <mxGeometry width="50" height="50" relative="1" as="geometry">
            <mxPoint x="-265" y="778" as="sourcePoint" />
            <mxPoint x="545" y="778" as="targetPoint" />
            <Array as="points">
              <mxPoint x="-265" y="818" />
              <mxPoint x="545" y="818" />
            </Array>
          </mxGeometry>
        </mxCell>
        <mxCell id="yNlJ8jRvlEqTjOjArR5y-69" value="" style="edgeStyle=none;orthogonalLoop=1;jettySize=auto;html=1;rounded=0;" edge="1" parent="1">
          <mxGeometry width="100" relative="1" as="geometry">
            <mxPoint x="-133.53" y="560" as="sourcePoint" />
            <mxPoint x="-133.53" y="600" as="targetPoint" />
            <Array as="points" />
          </mxGeometry>
        </mxCell>
        <mxCell id="yNlJ8jRvlEqTjOjArR5y-70" value="" style="edgeStyle=none;orthogonalLoop=1;jettySize=auto;html=1;rounded=0;" edge="1" parent="1">
          <mxGeometry width="100" relative="1" as="geometry">
            <mxPoint x="75" y="563" as="sourcePoint" />
            <mxPoint x="75" y="603" as="targetPoint" />
            <Array as="points" />
          </mxGeometry>
        </mxCell>
        <mxCell id="yNlJ8jRvlEqTjOjArR5y-71" value="" style="edgeStyle=none;orthogonalLoop=1;jettySize=auto;html=1;rounded=0;" edge="1" parent="1">
          <mxGeometry width="100" relative="1" as="geometry">
            <mxPoint x="245" y="562" as="sourcePoint" />
            <mxPoint x="245" y="602" as="targetPoint" />
            <Array as="points" />
          </mxGeometry>
        </mxCell>
        <mxCell id="yNlJ8jRvlEqTjOjArR5y-72" value="" style="edgeStyle=none;orthogonalLoop=1;jettySize=auto;html=1;rounded=0;" edge="1" parent="1">
          <mxGeometry width="100" relative="1" as="geometry">
            <mxPoint x="485" y="558" as="sourcePoint" />
            <mxPoint x="485" y="598" as="targetPoint" />
            <Array as="points" />
          </mxGeometry>
        </mxCell>
        <mxCell id="yNlJ8jRvlEqTjOjArR5y-73" value="" style="edgeStyle=none;orthogonalLoop=1;jettySize=auto;html=1;rounded=0;" edge="1" parent="1">
          <mxGeometry width="100" relative="1" as="geometry">
            <mxPoint x="-137.53" y="643" as="sourcePoint" />
            <mxPoint x="-138" y="690" as="targetPoint" />
            <Array as="points" />
          </mxGeometry>
        </mxCell>
        <mxCell id="yNlJ8jRvlEqTjOjArR5y-74" value="" style="edgeStyle=none;orthogonalLoop=1;jettySize=auto;html=1;rounded=0;" edge="1" parent="1">
          <mxGeometry width="100" relative="1" as="geometry">
            <mxPoint x="75.24000000000001" y="650" as="sourcePoint" />
            <mxPoint x="75" y="690" as="targetPoint" />
            <Array as="points" />
          </mxGeometry>
        </mxCell>
        <mxCell id="yNlJ8jRvlEqTjOjArR5y-76" value="" style="edgeStyle=none;orthogonalLoop=1;jettySize=auto;html=1;rounded=0;" edge="1" parent="1">
          <mxGeometry width="100" relative="1" as="geometry">
            <mxPoint x="245" y="650" as="sourcePoint" />
            <mxPoint x="244.52999999999997" y="685" as="targetPoint" />
            <Array as="points" />
          </mxGeometry>
        </mxCell>
        <mxCell id="yNlJ8jRvlEqTjOjArR5y-77" value="" style="edgeStyle=none;orthogonalLoop=1;jettySize=auto;html=1;rounded=0;" edge="1" parent="1">
          <mxGeometry width="100" relative="1" as="geometry">
            <mxPoint x="485" y="650" as="sourcePoint" />
            <mxPoint x="484.53" y="685" as="targetPoint" />
            <Array as="points" />
          </mxGeometry>
        </mxCell>
        <mxCell id="yNlJ8jRvlEqTjOjArR5y-78" value="" style="edgeStyle=none;orthogonalLoop=1;jettySize=auto;html=1;rounded=0;" edge="1" parent="1">
          <mxGeometry width="100" relative="1" as="geometry">
            <mxPoint x="-145" y="780" as="sourcePoint" />
            <mxPoint x="-145.47" y="805" as="targetPoint" />
            <Array as="points" />
          </mxGeometry>
        </mxCell>
        <mxCell id="yNlJ8jRvlEqTjOjArR5y-79" value="" style="edgeStyle=none;orthogonalLoop=1;jettySize=auto;html=1;rounded=0;" edge="1" parent="1">
          <mxGeometry width="100" relative="1" as="geometry">
            <mxPoint x="65" y="780" as="sourcePoint" />
            <mxPoint x="64.52999999999997" y="805" as="targetPoint" />
            <Array as="points" />
          </mxGeometry>
        </mxCell>
        <mxCell id="yNlJ8jRvlEqTjOjArR5y-80" value="" style="edgeStyle=none;orthogonalLoop=1;jettySize=auto;html=1;rounded=0;" edge="1" parent="1">
          <mxGeometry width="100" relative="1" as="geometry">
            <mxPoint x="245.16999999999996" y="780" as="sourcePoint" />
            <mxPoint x="244.69999999999993" y="805" as="targetPoint" />
            <Array as="points" />
          </mxGeometry>
        </mxCell>
        <mxCell id="yNlJ8jRvlEqTjOjArR5y-81" value="" style="edgeStyle=none;orthogonalLoop=1;jettySize=auto;html=1;rounded=0;" edge="1" parent="1">
          <mxGeometry width="100" relative="1" as="geometry">
            <mxPoint x="485.24" y="770" as="sourcePoint" />
            <mxPoint x="484.77" y="795" as="targetPoint" />
            <Array as="points" />
          </mxGeometry>
        </mxCell>
        <mxCell id="yNlJ8jRvlEqTjOjArR5y-82" value="" style="edgeStyle=none;orthogonalLoop=1;jettySize=auto;html=1;rounded=0;" edge="1" parent="1">
          <mxGeometry width="100" relative="1" as="geometry">
            <mxPoint x="-143.18" y="690" as="sourcePoint" />
            <mxPoint x="-143.18" y="730" as="targetPoint" />
            <Array as="points" />
          </mxGeometry>
        </mxCell>
        <mxCell id="yNlJ8jRvlEqTjOjArR5y-83" value="" style="edgeStyle=none;orthogonalLoop=1;jettySize=auto;html=1;rounded=0;" edge="1" parent="1">
          <mxGeometry width="100" relative="1" as="geometry">
            <mxPoint x="65" y="700" as="sourcePoint" />
            <mxPoint x="65" y="730" as="targetPoint" />
            <Array as="points" />
          </mxGeometry>
        </mxCell>
        <mxCell id="yNlJ8jRvlEqTjOjArR5y-84" value="" style="edgeStyle=none;orthogonalLoop=1;jettySize=auto;html=1;rounded=0;entryX=0.5;entryY=0;entryDx=0;entryDy=0;" edge="1" parent="1" target="yNlJ8jRvlEqTjOjArR5y-66">
          <mxGeometry width="100" relative="1" as="geometry">
            <mxPoint x="244.82000000000005" y="700" as="sourcePoint" />
            <mxPoint x="245" y="720" as="targetPoint" />
            <Array as="points" />
          </mxGeometry>
        </mxCell>
        <mxCell id="yNlJ8jRvlEqTjOjArR5y-85" value="" style="edgeStyle=none;orthogonalLoop=1;jettySize=auto;html=1;rounded=0;" edge="1" parent="1">
          <mxGeometry width="100" relative="1" as="geometry">
            <mxPoint x="484.81999999999994" y="690" as="sourcePoint" />
            <mxPoint x="484.81999999999994" y="730" as="targetPoint" />
            <Array as="points" />
          </mxGeometry>
        </mxCell>
        <mxCell id="yNlJ8jRvlEqTjOjArR5y-86" value="" style="whiteSpace=wrap;html=1;aspect=fixed;fillColor=#808080;fontColor=#333333;strokeColor=#666666;" vertex="1" parent="1">
          <mxGeometry x="-193" y="860" width="40" height="40" as="geometry" />
        </mxCell>
        <mxCell id="yNlJ8jRvlEqTjOjArR5y-87" value="" style="whiteSpace=wrap;html=1;aspect=fixed;fillColor=#808080;fontColor=#333333;strokeColor=#666666;" vertex="1" parent="1">
          <mxGeometry x="-75" y="860" width="40" height="40" as="geometry" />
        </mxCell>
        <mxCell id="yNlJ8jRvlEqTjOjArR5y-88" value="" style="whiteSpace=wrap;html=1;aspect=fixed;fillColor=#808080;fontColor=#333333;strokeColor=#666666;" vertex="1" parent="1">
          <mxGeometry x="65" y="860" width="40" height="40" as="geometry" />
        </mxCell>
        <mxCell id="yNlJ8jRvlEqTjOjArR5y-89" value="" style="whiteSpace=wrap;html=1;aspect=fixed;fillColor=#808080;fontColor=#333333;strokeColor=#666666;" vertex="1" parent="1">
          <mxGeometry x="225" y="860" width="40" height="40" as="geometry" />
        </mxCell>
        <mxCell id="yNlJ8jRvlEqTjOjArR5y-90" value="" style="whiteSpace=wrap;html=1;aspect=fixed;fillColor=#808080;fontColor=#333333;strokeColor=#666666;" vertex="1" parent="1">
          <mxGeometry x="465" y="860" width="40" height="40" as="geometry" />
        </mxCell>
        <mxCell id="yNlJ8jRvlEqTjOjArR5y-91" value="" style="edgeStyle=none;orthogonalLoop=1;jettySize=auto;html=1;rounded=0;dashed=1;" edge="1" parent="1">
          <mxGeometry width="100" relative="1" as="geometry">
            <mxPoint x="-173.3" y="810" as="sourcePoint" />
            <mxPoint x="-173.3" y="850" as="targetPoint" />
            <Array as="points" />
          </mxGeometry>
        </mxCell>
        <mxCell id="yNlJ8jRvlEqTjOjArR5y-92" value="" style="edgeStyle=none;orthogonalLoop=1;jettySize=auto;html=1;rounded=0;dashed=1;" edge="1" parent="1">
          <mxGeometry width="100" relative="1" as="geometry">
            <mxPoint x="-55" y="810" as="sourcePoint" />
            <mxPoint x="-55" y="850" as="targetPoint" />
            <Array as="points" />
          </mxGeometry>
        </mxCell>
        <mxCell id="yNlJ8jRvlEqTjOjArR5y-93" value="" style="edgeStyle=none;orthogonalLoop=1;jettySize=auto;html=1;rounded=0;dashed=1;" edge="1" parent="1">
          <mxGeometry width="100" relative="1" as="geometry">
            <mxPoint x="84.94999999999999" y="820" as="sourcePoint" />
            <mxPoint x="84.94999999999999" y="860" as="targetPoint" />
            <Array as="points" />
          </mxGeometry>
        </mxCell>
        <mxCell id="yNlJ8jRvlEqTjOjArR5y-94" value="" style="edgeStyle=none;orthogonalLoop=1;jettySize=auto;html=1;rounded=0;dashed=1;" edge="1" parent="1">
          <mxGeometry width="100" relative="1" as="geometry">
            <mxPoint x="244.70000000000005" y="820" as="sourcePoint" />
            <mxPoint x="244.70000000000005" y="860" as="targetPoint" />
            <Array as="points" />
          </mxGeometry>
        </mxCell>
        <mxCell id="yNlJ8jRvlEqTjOjArR5y-96" value="" style="edgeStyle=none;orthogonalLoop=1;jettySize=auto;html=1;rounded=0;dashed=1;" edge="1" parent="1">
          <mxGeometry width="100" relative="1" as="geometry">
            <mxPoint x="484.69999999999993" y="820" as="sourcePoint" />
            <mxPoint x="484.69999999999993" y="860" as="targetPoint" />
            <Array as="points" />
          </mxGeometry>
        </mxCell>
        <mxCell id="yNlJ8jRvlEqTjOjArR5y-98" value="&lt;font style=&quot;font-size: 22px;&quot;&gt;&lt;b&gt;....&lt;/b&gt;&lt;/font&gt;" style="text;html=1;align=center;verticalAlign=middle;resizable=0;points=[];autosize=1;strokeColor=none;fillColor=none;" vertex="1" parent="1">
          <mxGeometry x="347" y="600" width="50" height="40" as="geometry" />
        </mxCell>
        <mxCell id="yNlJ8jRvlEqTjOjArR5y-99" value="&lt;font style=&quot;font-size: 22px;&quot;&gt;&lt;b&gt;....&lt;/b&gt;&lt;/font&gt;" style="text;html=1;align=center;verticalAlign=middle;resizable=0;points=[];autosize=1;strokeColor=none;fillColor=none;" vertex="1" parent="1">
          <mxGeometry x="347" y="730" width="50" height="40" as="geometry" />
        </mxCell>
        <mxCell id="yNlJ8jRvlEqTjOjArR5y-100" value="&lt;font style=&quot;font-size: 22px;&quot;&gt;&lt;b&gt;....&lt;/b&gt;&lt;/font&gt;" style="text;html=1;align=center;verticalAlign=middle;resizable=0;points=[];autosize=1;strokeColor=none;fillColor=none;rotation=90;" vertex="1" parent="1">
          <mxGeometry x="-53" y="650" width="50" height="40" as="geometry" />
        </mxCell>
        <mxCell id="yNlJ8jRvlEqTjOjArR5y-101" value="&lt;font style=&quot;font-size: 22px;&quot;&gt;&lt;b&gt;....&lt;/b&gt;&lt;/font&gt;" style="text;html=1;align=center;verticalAlign=middle;resizable=0;points=[];autosize=1;strokeColor=none;fillColor=none;rotation=90;" vertex="1" parent="1">
          <mxGeometry x="337" y="660" width="50" height="40" as="geometry" />
        </mxCell>
        <mxCell id="yNlJ8jRvlEqTjOjArR5y-103" value="&lt;font style=&quot;font-size: 26px;&quot;&gt;X&lt;/font&gt;" style="text;html=1;align=center;verticalAlign=middle;resizable=0;points=[];autosize=1;strokeColor=none;fillColor=none;" vertex="1" parent="1">
          <mxGeometry x="-123" y="479" width="40" height="40" as="geometry" />
        </mxCell>
        <mxCell id="yNlJ8jRvlEqTjOjArR5y-104" value="&lt;font style=&quot;font-size: 26px;&quot;&gt;X&lt;/font&gt;" style="text;html=1;align=center;verticalAlign=middle;resizable=0;points=[];autosize=1;strokeColor=none;fillColor=none;" vertex="1" parent="1">
          <mxGeometry x="-35" y="479" width="40" height="40" as="geometry" />
        </mxCell>
        <mxCell id="yNlJ8jRvlEqTjOjArR5y-105" value="&lt;font style=&quot;font-size: 23px;&quot;&gt;سطح صفر&lt;/font&gt;" style="text;html=1;align=center;verticalAlign=middle;resizable=0;points=[];autosize=1;strokeColor=none;fillColor=none;" vertex="1" parent="1">
          <mxGeometry x="-365" y="170" width="100" height="40" as="geometry" />
        </mxCell>
        <mxCell id="yNlJ8jRvlEqTjOjArR5y-106" value="&lt;font style=&quot;font-size: 23px;&quot;&gt;سطح ۱&lt;/font&gt;" style="text;html=1;align=center;verticalAlign=middle;resizable=0;points=[];autosize=1;strokeColor=none;fillColor=none;" vertex="1" parent="1">
          <mxGeometry x="-355" y="240" width="80" height="40" as="geometry" />
        </mxCell>
        <mxCell id="yNlJ8jRvlEqTjOjArR5y-107" value="&lt;font style=&quot;font-size: 23px;&quot;&gt;سطح ۲&lt;/font&gt;" style="text;html=1;align=center;verticalAlign=middle;resizable=0;points=[];autosize=1;strokeColor=none;fillColor=none;" vertex="1" parent="1">
          <mxGeometry x="-365" y="320" width="80" height="40" as="geometry" />
        </mxCell>
        <mxCell id="yNlJ8jRvlEqTjOjArR5y-112" value="" style="group" vertex="1" connectable="0" parent="1">
          <mxGeometry x="-405" y="479" width="125" height="41" as="geometry" />
        </mxCell>
        <mxCell id="yNlJ8jRvlEqTjOjArR5y-108" value="&lt;font style=&quot;font-size: 23px;&quot;&gt;سطح&amp;nbsp;&lt;/font&gt;" style="text;html=1;align=center;verticalAlign=middle;resizable=0;points=[];autosize=1;strokeColor=none;fillColor=none;" vertex="1" parent="yNlJ8jRvlEqTjOjArR5y-112">
          <mxGeometry x="55" width="70" height="40" as="geometry" />
        </mxCell>
        <mxCell id="yNlJ8jRvlEqTjOjArR5y-111" value="&lt;font style=&quot;font-size: 19px;&quot;&gt;$$\tau &#39;$$&lt;/font&gt;" style="text;html=1;align=center;verticalAlign=middle;resizable=0;points=[];autosize=1;strokeColor=none;fillColor=none;fontFamily=Times New Roman;fontSize=19;" vertex="1" parent="yNlJ8jRvlEqTjOjArR5y-112">
          <mxGeometry y="1" width="100" height="40" as="geometry" />
        </mxCell>
        <mxCell id="yNlJ8jRvlEqTjOjArR5y-114" value="" style="group" vertex="1" connectable="0" parent="1">
          <mxGeometry x="-415" y="600" width="140" height="40" as="geometry" />
        </mxCell>
        <mxCell id="yNlJ8jRvlEqTjOjArR5y-109" value="&lt;font style=&quot;font-size: 23px;&quot;&gt;سطح&amp;nbsp;&lt;/font&gt;" style="text;html=1;align=center;verticalAlign=middle;resizable=0;points=[];autosize=1;strokeColor=none;fillColor=none;" vertex="1" parent="yNlJ8jRvlEqTjOjArR5y-114">
          <mxGeometry x="70" width="70" height="40" as="geometry" />
        </mxCell>
        <mxCell id="yNlJ8jRvlEqTjOjArR5y-113" value="&lt;font face=&quot;Times New Roman&quot; style=&quot;font-size: 17px;&quot;&gt;$$\tau &#39; -1$$&lt;/font&gt;" style="text;html=1;align=center;verticalAlign=middle;resizable=0;points=[];autosize=1;strokeColor=none;fillColor=none;fontSize=17;" vertex="1" parent="yNlJ8jRvlEqTjOjArR5y-114">
          <mxGeometry y="5" width="110" height="30" as="geometry" />
        </mxCell>
        <mxCell id="yNlJ8jRvlEqTjOjArR5y-116" value="" style="group" vertex="1" connectable="0" parent="1">
          <mxGeometry x="-395" y="730" width="110" height="40" as="geometry" />
        </mxCell>
        <mxCell id="yNlJ8jRvlEqTjOjArR5y-110" value="&lt;font style=&quot;font-size: 23px;&quot;&gt;سطح&lt;/font&gt;" style="text;html=1;align=center;verticalAlign=middle;resizable=0;points=[];autosize=1;strokeColor=none;fillColor=none;" vertex="1" parent="yNlJ8jRvlEqTjOjArR5y-116">
          <mxGeometry x="50" width="60" height="40" as="geometry" />
        </mxCell>
        <mxCell id="yNlJ8jRvlEqTjOjArR5y-115" value="&lt;font style=&quot;font-size: 17px;&quot;&gt;$$\tau$$&lt;/font&gt;" style="text;html=1;align=center;verticalAlign=middle;resizable=0;points=[];autosize=1;strokeColor=none;fillColor=none;" vertex="1" parent="yNlJ8jRvlEqTjOjArR5y-116">
          <mxGeometry y="5" width="90" height="30" as="geometry" />
        </mxCell>
        <mxCell id="yNlJ8jRvlEqTjOjArR5y-117" value="&lt;span style=&quot;font-size: 21px;&quot;&gt;رویکرد های تسریع کننده&lt;/span&gt;" style="text;html=1;align=center;verticalAlign=middle;resizable=0;points=[];autosize=1;strokeColor=none;fillColor=none;" vertex="1" parent="1">
          <mxGeometry x="620" y="480" width="190" height="40" as="geometry" />
        </mxCell>
        <mxCell id="yNlJ8jRvlEqTjOjArR5y-120" value="" style="group" vertex="1" connectable="0" parent="1">
          <mxGeometry x="545" y="760" width="360" height="60" as="geometry" />
        </mxCell>
        <mxCell id="yNlJ8jRvlEqTjOjArR5y-118" value="&lt;span style=&quot;font-size: 21px;&quot;&gt;الگوریتم ابتکاری برای ترتیب عملیاتی&amp;nbsp; &amp;nbsp; &amp;nbsp; &amp;nbsp;با در&amp;nbsp;&lt;br&gt;نظر گرفتن تداخل&lt;/span&gt;" style="text;html=1;align=center;verticalAlign=middle;resizable=0;points=[];autosize=1;strokeColor=none;fillColor=none;" vertex="1" parent="yNlJ8jRvlEqTjOjArR5y-120">
          <mxGeometry width="360" height="60" as="geometry" />
        </mxCell>
        <mxCell id="yNlJ8jRvlEqTjOjArR5y-119" value="&lt;font style=&quot;font-size: 16px;&quot;&gt;AGV&lt;/font&gt;" style="text;html=1;align=center;verticalAlign=middle;resizable=0;points=[];autosize=1;strokeColor=none;fillColor=none;" vertex="1" parent="yNlJ8jRvlEqTjOjArR5y-120">
          <mxGeometry x="35" width="60" height="30" as="geometry" />
        </mxCell>
      </root>
    </mxGraphModel>
  </diagram>
</mxfile>
